<svg width="478" height="516" viewBox="0 0 478 516" fill="none" xmlns="http://www.w3.org/2000/svg">
<path d="M766.998 386.364C718.294 444.928 618.807 375.273 478 407.147C475.362 407.745 472.709 408.377 470.041 409.047C344.438 440.615 338.903 517.023 237.943 515.529C164.183 514.453 82.9112 473.72 37.0951 400.585C-13.4311 319.948 2.37567 236.33 6.88445 216.023C27.0031 124.945 91.7285 75.6735 114.575 58.8281C208.703 -10.5334 316.305 -1.19247 367.925 3.26301C404.515 6.43295 441.686 13.7548 478 24.556C634.129 70.9952 774.425 181.752 784.667 303.389C786.338 323.017 789.395 359.423 766.998 386.364Z" fill="url(#paint0_linear_123_5)"/>
<defs>
<linearGradient id="paint0_linear_123_5" x1="372.999" y1="-76.3616" x2="401.298" y2="493.938" gradientUnits="userSpaceOnUse">
<stop stop-color="#F3F7FF"/>
<stop offset="1" stop-color="#DEEEFE"/>
</linearGradient>
</defs>
</svg>
